Coordinates
version=1
nRows=27
nColumns=38
inDegrees=no

Units are S.I. units (second, meters, Newtons, ...)
If the header above contains a line with 'inDegrees', this indicates whether rotational values are in degrees (yes) or radians (no).

endheader
time	pelvis_tilt	pelvis_list	pelvis_rotation	pelvis_tx	pelvis_ty	pelvis_tz	hip_flexion_r	hip_adduction_r	hip_rotation_r	knee_angle_r	ankle_angle_r	subtalar_angle_r	mtp_angle_r	hip_flexion_l	hip_adduction_l	hip_rotation_l	knee_angle_l	ankle_angle_l	subtalar_angle_l	mtp_angle_l	lumbar_extension	lumbar_bending	lumbar_rotation	arm_flex_r	arm_add_r	arm_rot_r	elbow_flex_r	pro_sup_r	wrist_flex_r	wrist_dev_r	arm_flex_l	arm_add_l	arm_rot_l	elbow_flex_l	pro_sup_l	wrist_flex_l	wrist_dev_l
2.06	-2.81976	1.43431	-1.71969	0.49957	1.51575	0.949654	0.305274	-0.222792	-0.1504	1.1459	0.0979715	0	0	-0.112633	0.0834254	-0.140027	0.192282	0.181213	0	0	-0.23177	-0.0593882	-0.211532	-0.198959	-0.201526	0.238927	0.634667	0.39151	0	0	-0.0161028	-0.39037	0.275348	0.709838	1.35565	0	0
2.07	-2.82826	1.43395	-1.70169	0.49913	1.52484	0.950331	0.312284	-0.214497	-0.161613	1.10629	0.106445	0	0	-0.12978	0.0735362	-0.143017	0.181227	0.189363	0	0	-0.233066	-0.057616	-0.220493	-0.19934	-0.197963	0.235698	0.637069	0.397045	0	0	-0.0060453	-0.396046	0.275659	0.718747	1.34895	0	0
2.08	-2.86971	1.43071	-1.66068	0.496889	1.53372	0.950875	0.317199	-0.221351	-0.173937	1.06399	0.114449	0	0	-0.153694	0.0770214	-0.115767	0.162197	0.178705	0	0	-0.237667	-0.0489159	-0.223265	-0.197044	-0.198536	0.22993	0.641626	0.402107	0	0	0.00229889	-0.398679	0.27728	0.729206	1.33633	0	0
2.09	-2.88448	1.42979	-1.64227	0.495704	1.54256	0.951047	0.323719	-0.222749	-0.188082	1.02136	0.113375	0	0	-0.171291	0.074759	-0.107254	0.150603	0.17952	0	0	-0.239566	-0.0451137	-0.228439	-0.195282	-0.197313	0.22638	0.645448	0.406067	0	0	0.0114006	-0.402881	0.277969	0.738948	1.32922	0	0
2.1	-2.89457	1.42894	-1.62916	0.494631	1.5515	0.950963	0.328844	-0.224586	-0.204067	0.975961	0.114696	0	0	-0.188672	0.0731205	-0.0987109	0.139147	0.18069	0	0	-0.241285	-0.0421592	-0.233042	-0.192903	-0.19659	0.224394	0.649442	0.409012	0	0	0.0202484	-0.407235	0.27854	0.749049	1.32271	0	0
2.11	-2.90004	1.42836	-1.62125	0.493582	1.56038	0.950628	0.332503	-0.22624	-0.220812	0.926759	0.118837	0	0	-0.205214	0.0720789	-0.0906008	0.128827	0.182681	0	0	-0.242798	-0.0398871	-0.237198	-0.18999	-0.196305	0.223249	0.65394	0.411362	0	0	0.0290835	-0.411373	0.278897	0.758982	1.31675	0	0
2.12	-2.90028	1.4282	-1.61947	0.492414	1.56927	0.949994	0.335341	-0.227194	-0.237592	0.874207	0.123364	0	0	-0.220513	0.0716046	-0.0838441	0.119995	0.185678	0	0	-0.243998	-0.0385337	-0.240415	-0.186583	-0.196118	0.222598	0.658471	0.413739	0	0	0.0380975	-0.415547	0.279593	0.768566	1.31172	0	0
2.13	-2.89755	1.42855	-1.62122	0.492274	1.57805	0.949198	0.338201	-0.227447	-0.253751	0.820614	0.125316	0	0	-0.234628	0.0716211	-0.078852	0.112301	0.189688	0	0	-0.244975	-0.0380709	-0.242616	-0.183033	-0.195693	0.221946	0.663106	0.416522	0	0	0.0478912	-0.420047	0.281426	0.777664	1.30763	0	0
2.14	-2.89046	1.42939	-1.62873	0.491495	1.58695	0.94801	0.341142	-0.226963	-0.270682	0.765558	0.129022	0	0	-0.247547	0.0721699	-0.0745502	0.105883	0.193649	0	0	-0.245388	-0.0382603	-0.243109	-0.179315	-0.195159	0.220234	0.667499	0.419693	0	0	0.0576274	-0.424266	0.284012	0.786533	1.30416	0	0
2.15	-2.8826	1.43115	-1.63744	0.49123	1.5959	0.946553	0.344672	-0.224959	-0.287109	0.709771	0.132891	0	0	-0.258559	0.0725928	-0.0731578	0.101007	0.199095	0	0	-0.244939	-0.0388923	-0.242839	-0.176034	-0.194345	0.21864	0.672323	0.422898	0	0	0.0675041	-0.42858	0.286948	0.794899	1.30115	0	0
2.16	-2.85243	1.43389	-1.66366	0.491681	1.60476	0.944825	0.35015	-0.216489	-0.295337	0.65473	0.131345	0	0	-0.268209	0.0688802	-0.0817555	0.0950538	0.208797	0	0	-0.243684	-0.0435614	-0.244561	-0.174162	-0.192151	0.218091	0.676753	0.426334	0	0	0.0791877	-0.43366	0.290431	0.802369	1.29823	0	0
2.17	-2.84683	1.43503	-1.67257	0.49167	1.61366	0.943103	0.351705	-0.212152	-0.308209	0.596547	0.136551	0	0	-0.281783	0.070098	-0.0776292	0.0861488	0.210459	0	0	-0.244395	-0.0439791	-0.241532	-0.170658	-0.193389	0.22103	0.683813	0.418199	0	0	0.0895885	-0.436355	0.291016	0.808662	1.31109	0	0
2.18	-2.83856	1.43767	-1.68468	0.491885	1.62258	0.941118	0.354465	-0.206727	-0.320467	0.538682	0.14061	0	0	-0.291854	0.0710176	-0.0783929	0.0818817	0.216117	0	0	-0.243505	-0.0449122	-0.2377	-0.166909	-0.193354	0.22094	0.688304	0.419719	0	0	0.100144	-0.439356	0.294472	0.8143	1.31213	0	0
2.19	-2.83084	1.44054	-1.6975	0.492329	1.63153	0.939024	0.356694	-0.19935	-0.33081	0.480192	0.144658	0	0	-0.301475	0.0716969	-0.0820495	0.0787493	0.224025	0	0	-0.242521	-0.0459325	-0.232512	-0.163082	-0.193184	0.221041	0.692718	0.417886	0	0	0.110852	-0.442107	0.298685	0.818727	1.31023	0	0
2.2	-2.81987	1.44355	-1.71484	0.492921	1.64043	0.936854	0.357771	-0.189997	-0.333395	0.419631	0.149376	0	0	-0.311305	0.0729513	-0.0855739	0.0747179	0.231229	0	0	-0.241679	-0.0474396	-0.226257	-0.159017	-0.192815	0.219546	0.69704	0.419584	0	0	0.12156	-0.444186	0.302026	0.821866	1.31197	0	0
2.21	-2.80465	1.447	-1.73635	0.493607	1.64931	0.934613	0.358039	-0.179641	-0.330434	0.358876	0.154854	0	0	-0.31929	0.0741365	-0.0903516	0.0731083	0.239374	0	0	-0.240575	-0.049342	-0.220327	-0.154494	-0.192354	0.218483	0.700503	0.421555	0	0	0.131892	-0.445985	0.304709	0.823917	1.31406	0	0
2.22	-2.83611	1.45044	-1.71427	0.494302	1.65711	0.933159	0.361476	-0.164827	-0.303948	0.31341	0.107293	0	0	-0.324041	0.0702173	-0.101035	0.0773766	0.249149	0	0	-0.243913	-0.0438772	-0.210794	-0.145551	-0.193328	0.216265	0.702504	0.423736	0	0	0.146388	-0.443352	0.305405	0.820126	1.31785	0	0
2.23	-2.77038	1.45412	-1.78298	0.495305	1.66728	0.930145	0.353895	-0.155151	-0.310076	0.236964	0.153181	0	0	-0.329851	0.0746544	-0.107059	0.0807338	0.26105	0	0	-0.23823	-0.0531992	-0.209212	-0.146123	-0.189662	0.212159	0.706973	0.426769	0	0	0.151164	-0.449042	0.309643	0.824737	1.32171	0	0
2.24	-2.74543	1.45834	-1.81301	0.496106	1.67646	0.927846	0.350107	-0.143534	-0.294064	0.177744	0.145593	0	0	-0.331811	0.074438	-0.117794	0.0901943	0.274057	0	0	-0.235834	-0.0554365	-0.205321	-0.142164	-0.188338	0.209848	0.7091	0.429625	0	0	0.159012	-0.450122	0.311459	0.823804	1.32455	0	0
2.25	-2.72071	1.46253	-1.84135	0.496823	1.68587	0.925583	0.343568	-0.13254	-0.274413	0.120575	0.132116	0	0	-0.331328	0.0726922	-0.13201	0.105675	0.290373	0	0	-0.233162	-0.0570731	-0.202903	-0.138616	-0.186369	0.204493	0.70949	0.447582	0	0	0.165699	-0.451078	0.314129	0.822213	1.31942	0	0
2.26	-2.69044	1.46617	-1.87368	0.49732	1.69563	0.923376	0.339326	-0.125188	-0.264282	0.0795633	0.121386	0	0	-0.333261	0.0715312	-0.139406	0.117168	0.302243	0	0	-0.23017	-0.0587164	-0.202611	-0.135923	-0.186138	0.204942	0.711553	0.444354	0	0	0.170308	-0.451212	0.313711	0.819622	1.32367	0	0
2.27	-2.72191	1.46835	-1.84306	0.497154	1.70484	0.922197	0.318117	-0.11712	-0.200995	0.0271895	0.0554687	0	0	-0.334538	0.0640261	-0.151184	0.136093	0.315813	0	0	-0.232833	-0.0517274	-0.203229	-0.13003	-0.18858	0.206223	0.712497	0.441536	0	0	0.177011	-0.446726	0.310458	0.811909	1.32935	0	0
2.28	-2.68193	1.46976	-1.88073	0.497914	1.7162	0.919764	0.325502	-0.110336	-0.251379	0.0284426	0.0990805	0	0	-0.339936	0.0615261	-0.156392	0.148201	0.327091	0	0	-0.228156	-0.0557731	-0.207793	-0.132279	-0.187037	0.206741	0.715367	0.440793	0	0	0.175225	-0.450231	0.311376	0.812029	1.33095	0	0
2.29	-2.60487	1.4724	-1.95303	0.497587	1.72749	0.917206	0.32213	-0.116961	-0.237802	0.00958151	0.0863413	0	0	-0.34082	0.0625811	-0.157029	0.164037	0.337565	0	0	-0.220775	-0.0605079	-0.215487	-0.135422	-0.187625	0.206666	0.719917	0.440224	0	0	0.17201	-0.451122	0.31139	0.810371	1.33157	0	0
2.3	-2.60985	1.47327	-1.94423	0.497406	1.73862	0.91568	0.321503	-0.114323	-0.247074	0.0227753	0.0887672	0	0	-0.345709	0.0558978	-0.160757	0.180854	0.346786	0	0	-0.219594	-0.0567923	-0.221631	-0.136525	-0.189546	0.20702	0.724353	0.439652	0	0	0.169789	-0.449381	0.309588	0.805845	1.33153	0	0
2.31	-2.64792	1.47404	-1.90206	0.496121	1.74891	0.915035	0.310333	-0.119746	-0.199085	0.0358284	0.0441404	0	0	-0.350438	0.0484039	-0.161298	0.197419	0.351896	0	0	-0.222389	-0.0464646	-0.228166	-0.134663	-0.194783	0.206702	0.729484	0.439134	0	0	0.169905	-0.441677	0.304482	0.796276	1.33213	0	0
2.32	-2.72653	1.47286	-1.81985	0.496915	1.76094	0.914098	0.333344	-0.103961	-0.317363	0.121194	0.114234	0	0	-0.359299	0.0325998	-0.174231	0.216241	0.360888	0	0	-0.2243	-0.0372248	-0.233249	-0.137791	-0.195206	0.204834	0.734928	0.439066	0	0	0.164745	-0.440482	0.300895	0.791629	1.33358	0	0
